<?xml version="1.0" encoding="utf-8"?>
<!-- Generator: Adobe Illustrator 22.1.0, SVG Export Plug-In . SVG Version: 6.00 Build 0)  -->
<svg version="1.1" xmlns="http://www.w3.org/2000/svg" xmlns:xlink="http://www.w3.org/1999/xlink" x="0px" y="0px"
	 viewBox="0 0 604.6 166.7" style="enable-background:new 0 0 604.6 166.7;" xml:space="preserve">
<style type="text/css">
	.st0{stroke:#FFFFFF;stroke-width:2;stroke-miterlimit:10;}
	.st1{fill:none;stroke:#000000;stroke-width:4;stroke-miterlimit:10;}
	.st2{opacity:0.56;}
	.st3{fill:none;stroke:#000000;stroke-width:3;stroke-miterlimit:10;}
	.st4{fill:none;stroke:#000000;stroke-width:2.5;stroke-miterlimit:10;}
	.st5{fill:none;stroke:#000000;stroke-width:3.5;stroke-miterlimit:10;}
</style>
<g id="Layer_1">
</g>
<g id="Layer_2">
	<g>
		<path d="M601.7,79c-5.9-10.3-15.7-16.2-26.1-19.6c0-0.1,0,0.1,0,0c-1.5-0.5-3-1-4.5-1.5c-11.7-3.3-27.6-4-40.8,0.2
			c-2.9,0.9-13.4,11-13.4,11s-0.2,0-0.2,0l0.6-7.6c0.1-2-1.5-3.8-3.5-3.8h-10.8l1.6,108.9h12.9v-19.1c0,0-0.3-21-0.6-38.4
			c7.5,3.9,15.8,7,24.4,9c9.7,2.4,19.9,3.5,29.7,3.2c10.6-0.3,23.9-4.3,29.8-14.7C603.4,102.2,607.4,89,601.7,79z M594.6,98.2
			c-2.8,6.5-14.7,12.8-24.9,13.1c-18.5,0.5-38-4.4-52.9-13.2c-0.1-5.3-0.1-9.3-0.1-10.8c0-2.1,0.3-4,0.8-5.8
			c1.1-3.6,3.2-6.6,6.5-9.1c6.6-5,16.5-7.1,26.3-7.1c2.6,0,5.1,0.2,7.6,0.5c13.5,1.9,28.1,6.2,35,18.2
			C595.9,89.1,596.5,93.9,594.6,98.2z"/>
		<g>
			<path d="M278.3,119.4l-59.7-61.3l0,0c4.6-4.5,12.1-4.4,16.6,0.2l43.1,44.3l43.1-44.3c4.5-4.6,11.9-4.7,16.6-0.2v0L278.3,119.4z"
				/>
		</g>
		<path d="M100.1,54H87.2c0,0,0.1,4.3,0.3,9.9C80.1,60,71.9,57,63.3,54.9c-9.7-2.4-19.9-3.5-29.7-3.2C23.1,52,9.7,56.1,3.8,66.4
			C1.2,71-2.8,84.3,2.9,94.3c5.9,10.3,15.7,16.2,26.1,19.6c0,0,0-0.1,0,0c1.5,0.5,3,1,4.5,1.5c11.7,3.3,27.6,4,40.8-0.2
			c2.9-0.9,13.4-11,13.4-11s0.2,0,0.2,0l-0.6,7.6c-0.1,2,1.5,3.8,3.5,3.8h10.8L100.1,54z M87.2,91.8c-1.1,3.6-3.2,6.6-6.5,9.1
			c-6.6,5-16.5,7.1-26.3,7.1c-2.6,0-5.1-0.2-7.6-0.5c-13.5-1.9-28.1-6.2-35-18.2c-2.9-5.1-3.5-9.9-1.6-14.3
			C12.9,68.5,24.7,62.3,35,62c18.5-0.5,37.9,4.4,52.8,13.2C87.9,79.7,88,83.9,88,86C88,88.1,87.7,90,87.2,91.8z"/>
		<path d="M489.2,85.6c-0.8,7.4-5.3,13.2-9.9,17.1c-4.7,4.1-10,6.9-15.4,9.1c-10.8,4.4-22.1,6.3-33.5,6.5
			c-11.3,0.1-22.8-1.4-33.7-5.7c-5.4-2.2-10.8-5.1-15.5-9.6c-2.3-2.3-4.4-4.9-5.9-8.2c-1.5-3.2-2.1-7.1-1.7-10.7
			c0.8-7.4,5.3-13.2,9.9-17.2c4.7-4.1,10-6.9,15.4-9.1c10.8-4.4,22.2-6.3,33.5-6.6c11.3-0.1,22.8,1.4,33.8,5.7
			c5.4,2.2,10.8,5.1,15.5,9.6c2.3,2.3,4.4,5,5.8,8.2C489,78.1,489.6,81.9,489.2,85.6z M478.2,84.4c0.4-3.4-1.3-6.7-4.4-9.7
			c-3.1-3-7.3-5.3-11.8-7.1c-9.1-3.5-19.3-4.8-29.4-4.6c-10.1,0.1-20.2,1.8-29.4,5.4c-4.5,1.8-8.9,4.2-12.3,7.1
			c-3.5,2.9-5.8,6.4-6.2,9.8c-0.4,3.3,1.3,6.7,4.4,9.7c3.1,3,7.3,5.3,11.8,7.1c9.1,3.5,19.3,4.8,29.4,4.7
			c10.1-0.1,20.3-1.8,29.4-5.5c4.5-1.8,8.9-4.2,12.3-7.1C475.5,91.4,477.9,87.8,478.2,84.4z"/>
		<path d="M129.2,115.6c-0.2-9.1-0.5-18.1-0.7-27.2c-0.2-5.9-0.1-12.5,4-16.8c2.1-2.2,5-3.5,7.9-4.5c7.6-2.8,15.5-4.5,23.6-5.3
			c7.8-0.8,16.2-1.2,24,0.1c2.9,0.5,5.7,1.3,8.2,2.9c5.3,3.4,7.4,9.9,7.3,16c0,5.6-1,11.2-1.7,16.8c-0.7,6-1.5,12.3-2.2,18.3
			c4.1,0,8.2,0,12.3,0c1-7.4,2-15.1,3-22.5c1-7.7,2-15.7-0.3-23.1c-1.8-5.8-6.1-11.9-11.7-14.7c-7-3.5-15.3-3.8-22.9-4.2
			c-11.6-0.5-23.7-0.2-34.9,3c-3.6,1.1-6.6,2.7-9.6,5.1c-0.8,0.7-1.7,1.4-2.5,2.1c-1.5,1.4-3,2.9-4.5,4.4c0,0-0.2,0-0.2,0
			c0.5-0.4,0.3-3.6,0.3-4.2c0.2-2.4,0.3-4.7,0.5-7.1c-4.3,0-8.6,0-12.9,0c0,20.4,0,40.7,0,61.1C120.7,115.6,125,115.6,129.2,115.6z"
			/>
		<path d="M360,115.6h-12.9V0h10.7c1.2,0,2.1,0.9,2.1,2.1V115.6z"/>
	</g>
</g>
</svg>
